HIERARCHY
ROOT root
{
  OFFSET 0 93.2929 0
  CHANNELS 6 Xposition Yposition Zposition Zrotation Xrotation Yrotation
  JOINT torso_1
  {
    OFFSET 0 5.07867 -1.15138
    CHANNELS 6 Xposition Yposition Zposition Zrotation Xrotation Yrotation
    JOINT torso_2
    {
      OFFSET 0 5.61661 1.07143
      CHANNELS 6 Xposition Yposition Zposition Zrotation Xrotation Yrotation
      JOINT torso_3
      {
        OFFSET -1.02604e-17 5.98978 0.11501
        CHANNELS 6 Xposition Yposition Zposition Zrotation Xrotation Yrotation
        JOINT torso_4
        {
          OFFSET -1.10457e-17 6.50583 -0.443523
          CHANNELS 6 Xposition Yposition Zposition Zrotation Xrotation Yrotation
          JOINT torso_5
          {
            OFFSET -1.97295e-17 7.60548 -1.50593
            CHANNELS 6 Xposition Yposition Zposition Zrotation Xrotation Yrotation
            JOINT torso_6
            {
              OFFSET -2.53307e-17 9.49737 -0.914492
              CHANNELS 6 Xposition Yposition Zposition Zrotation Xrotation Yrotation
              JOINT torso_7
              {
                OFFSET -2.90401e-17 10.5513 1.57691
                CHANNELS 6 Xposition Yposition Zposition Zrotation Xrotation Yrotation
                JOINT neck_1
                {
                  OFFSET -1.29193e-17 4.78644 0.715339
                  CHANNELS 6 Xposition Yposition Zposition Zrotation Xrotation Yrotation
                  JOINT neck_2
                  {
                    OFFSET -1.8116e-17 4.82109 0.421791
                    CHANNELS 6 Xposition Yposition Zposition Zrotation Xrotation Yrotation
                    JOINT head
                    {
                      OFFSET -2.00958e-17 4.83041 0.765062
                      CHANNELS 6 Xposition Yposition Zposition Zrotation Xrotation Yrotation
                      End Site
                      {
                        OFFSET 0 0.1 0
                      }
                    }
                  }
                }
                JOINT l_shoulder
                {
                  OFFSET 1.23299 -7.60731 7.53374
                  CHANNELS 6 Xposition Yposition Zposition Zrotation Xrotation Yrotation
                  JOINT l_up_arm
                  {
                    OFFSET 12.9547 3.2495 -3.26872
                    CHANNELS 6 Xposition Yposition Zposition Zrotation Xrotation Yrotation
                    JOINT l_low_arm
                    {
                      OFFSET 29.2081 0.0598081 0.137039
                      CHANNELS 6 Xposition Yposition Zposition Zrotation Xrotation Yrotation
                      JOINT l_hand
                      {
                        OFFSET 24.234 0.0496219 0.113701
                        CHANNELS 6 Xposition Yposition Zposition Zrotation Xrotation Yrotation
                        End Site
                        {
                          OFFSET 0.1 0 0
                        }
                      }
                    }
                  }
                }
                JOINT r_shoulder
                {
                  OFFSET -1.23299 -7.60729 7.53365
                  CHANNELS 6 Xposition Yposition Zposition Zrotation Xrotation Yrotation
                  JOINT r_up_arm
                  {
                    OFFSET -12.9547 3.2495 -3.26872
                    CHANNELS 6 Xposition Yposition Zposition Zrotation Xrotation Yrotation
                    JOINT r_low_arm
                    {
                      OFFSET -29.2081 0.0598081 0.137039
                      CHANNELS 6 Xposition Yposition Zposition Zrotation Xrotation Yrotation
                      JOINT r_hand
                      {
                        OFFSET -24.234 0.0496218 0.113702
                        CHANNELS 6 Xposition Yposition Zposition Zrotation Xrotation Yrotation
                        End Site
                        {
                          OFFSET -0.1 0 0
                        }
                      }
                    }
                  }
                }
              }
            }
          }
        }
      }
    }
  }
  JOINT l_up_leg
  {
    OFFSET 9.23673 -4.20556 2.0327
    CHANNELS 6 Xposition Yposition Zposition Zrotation Xrotation Yrotation
    JOINT l_low_leg
    {
      OFFSET -0.852353 -38.7721 -0.655187
      CHANNELS 6 Xposition Yposition Zposition Zrotation Xrotation Yrotation
      JOINT l_foot
      {
        OFFSET -2.32622 -40.4017 -6.04875
        CHANNELS 6 Xposition Yposition Zposition Zrotation Xrotation Yrotation
        JOINT l_toes
        {
          OFFSET 0.779096 -9.8844 12.4959
          CHANNELS 6 Xposition Yposition Zposition Zrotation Xrotation Yrotation
          End Site
          {
            OFFSET 0 0 0.1
          }
        }
      }
    }
  }
  JOINT r_up_leg
  {
    OFFSET -9.23673 -4.20556 2.0327
    CHANNELS 6 Xposition Yposition Zposition Zrotation Xrotation Yrotation
    JOINT r_low_leg
    {
      OFFSET 0.852353 -38.7721 -0.655187
      CHANNELS 6 Xposition Yposition Zposition Zrotation Xrotation Yrotation
      JOINT r_foot
      {
        OFFSET 2.32622 -40.4017 -6.04875
        CHANNELS 6 Xposition Yposition Zposition Zrotation Xrotation Yrotation
        JOINT r_toes
        {
          OFFSET -0.779096 -9.8844 12.4959
          CHANNELS 6 Xposition Yposition Zposition Zrotation Xrotation Yrotation
          End Site
          {
            OFFSET 0 0 0.1
          }
        }
      }
    }
  }
}
MOTION
Frames: 4
Frame Time: 0.016667
0 93.2929 0 -0 0 -0 0 5.07867 -1.15138 -0 0 -0 0 5.61661 1.07143 -0 0 -0 -1.02604e-17 5.98978 0.11501 -0 0 -0 -1.10457e-17 6.50583 -0.443523 -0 0 -0 -1.97295e-17 7.60548 -1.50593 -0 0 -0 -2.53307e-17 9.49737 -0.914492 -0 0 -0 -2.90401e-17 10.5513 1.57691 -0 0 -0 -1.29193e-17 4.78644 0.715339 -0 0 -0 -1.8116e-17 4.82109 0.421791 -0 0 -0 -2.00958e-17 4.83041 0.765062 -0 0 -0 1.23299 -7.60731 7.53374 -0 0 -0 12.9547 3.2495 -3.26872 -0 0 -0 29.2081 0.0598081 0.137039 -0 0 -0 24.234 0.0496219 0.113701 -0 0 -0 -1.23299 -7.60729 7.53365 -0 0 -0 -12.9547 3.2495 -3.26872 -0 0 -0 -29.2081 0.0598081 0.137039 -0 0 -0 -24.234 0.0496218 0.113702 -0 0 -0 9.23673 -4.20556 2.0327 -0 0 -0 -0.852353 -38.7721 -0.655187 -0 0 -0 -2.32622 -40.4017 -6.04875 -0 0 -0 0.779096 -9.8844 12.4959 -0 0 -0 -9.23673 -4.20556 2.0327 -0 0 -0 0.852353 -38.7721 -0.655187 -0 0 -0 2.32622 -40.4017 -6.04875 -0 0 -0 -0.779096 -9.8844 12.4959 -0 0 -0 
-2.96232 93.2183 -1.75423 1.00298 0.886198 7.3099 0 5.07867 -1.15138 -0.0824347 -1.41126 -0.54385 0 5.61661 1.07143 0.113469 -0.42695 -0.459882 -1.02604e-17 5.98978 0.11501 0.250485 0.894102 -0.366611 -1.10457e-17 6.50583 -0.443523 0.436073 2.86857 -0.356508 -1.97295e-17 7.60548 -1.50593 0.490019 3.51775 -0.478109 -2.53307e-17 9.49737 -0.914492 0.480196 3.95731 -0.607785 -2.90401e-17 10.5513 1.57691 -0.000773421 0.116027 0.00170142 -1.29193e-17 4.78644 0.715339 2.22444 12.5985 -11.1512 -1.8116e-17 4.82109 0.421791 2.98761 5.25087 -5.02588 -2.00958e-17 4.83041 0.765062 3.02546 10.4943 -7.37708 1.23299 -7.60731 7.53374 2.58927 -0.603997 -0.00937756 12.9547 3.2495 -3.26872 -67.3652 38.7278 -16.336 29.2081 0.0598081 0.137039 11.8386 -14.0841 -100.578 24.234 0.0496219 0.113701 -10.1151 -62.1319 -12.4981 -1.23299 -7.60729 7.53365 -8.15235 -0.807315 -0.115414 -12.9547 3.2495 -3.26872 70.7978 42.7779 12.5216 -29.2081 0.0598081 0.137039 -11.9864 -10.9221 85.238 -24.234 0.0496218 0.113702 17.2439 -86.7634 18.0217 9.23673 -4.20556 2.0327 1.0936 -4.61046 -10.3331 -0.852353 -38.7721 -0.655187 -0.309534 1.15567 -0.0170504 -2.32622 -40.4017 -6.04875 -0.839111 1.70921 15.2491 0.779096 -9.8844 12.4959 6.47233e-16 -7.661e-16 -1.66147e-17 -9.23673 -4.20556 2.0327 -0.85808 -2.87164 11.5489 0.852353 -38.7721 -0.655187 0.503701 1.88101 0.0245657 2.32622 -40.4017 -6.04875 -1.61734 -0.915127 -14.9903 -0.779096 -9.8844 12.4959 -4.64619e-16 -5.65257e-16 -1.27512e-14 
-2.94425 93.2184 -1.75517 0.994143 0.894055 7.30159 0 5.07867 -1.15138 -0.0832491 -1.41673 -0.544587 0 5.61661 1.07143 0.112911 -0.430376 -0.460733 -1.02604e-17 5.98978 0.11501 0.250039 0.893271 -0.367575 -1.10457e-17 6.50583 -0.443523 0.435762 2.87195 -0.357594 -1.97295e-17 7.60548 -1.50593 0.489601 3.52353 -0.479229 -2.53307e-17 9.49737 -0.914492 0.479502 3.96448 -0.608905 -2.90401e-17 10.5513 1.57691 -0.00079185 0.115939 0.00166654 -1.29193e-17 4.78644 0.715339 2.22592 12.6073 -11.1629 -1.8116e-17 4.82109 0.421791 2.98421 5.25238 -5.03155 -2.00958e-17 4.83041 0.765062 3.02709 10.5003 -7.38497 1.23299 -7.60731 7.53374 2.58535 -0.607687 -0.00830714 12.9547 3.2495 -3.26872 -67.3531 38.7296 -16.344 29.2081 0.0598081 0.137039 11.8382 -14.086 -100.587 24.234 0.0496219 0.113701 -10.1008 -62.1263 -12.4846 -1.23299 -7.60729 7.53365 -8.15294 -0.81325 -0.117155 -12.9547 3.2495 -3.26872 70.7806 42.7751 12.5401 -29.2081 0.0598081 0.137039 -11.9865 -10.9223 85.2387 -24.234 0.0496218 0.113702 17.1437 -86.7678 17.9209 9.23673 -4.20556 2.0327 1.09109 -4.61057 -10.3265 -0.852353 -38.7721 -0.655187 -0.306797 1.14545 -0.0169269 -2.32622 -40.4017 -6.04875 -0.833139 1.70247 15.2479 0.779096 -9.8844 12.4959 -3.46679e-16 -8.07513e-16 2.47983e-17 -9.23673 -4.20556 2.0327 -0.861253 -2.88071 11.559 0.852353 -38.7721 -0.655187 0.503288 1.87946 0.0245523 2.32622 -40.4017 -6.04875 -1.6125 -0.911265 -14.9913 -0.779096 -9.8844 12.4959 1.97988e-16 -5.96317e-16 -1.27719e-14 
-2.92647 93.2178 -1.75593 0.985287 0.901668 7.30186 0 5.07867 -1.15138 -0.0847285 -1.42263 -0.545722 0 5.61661 1.07143 0.111951 -0.434485 -0.46198 -1.02604e-17 5.98978 0.11501 0.249345 0.891619 -0.368896 -1.10457e-17 6.50583 -0.443523 0.435373 2.87424 -0.359007 -1.97295e-17 7.60548 -1.50593 0.489216 3.52827 -0.480634 -2.53307e-17 9.49737 -0.914492 0.47887 3.97058 -0.610293 -2.90401e-17 10.5513 1.57691 -0.000812637 0.115853 0.00164705 -1.29193e-17 4.78644 0.715339 2.22811 12.6153 -11.1821 -1.8116e-17 4.82109 0.421791 2.98156 5.25676 -5.04065 -2.00958e-17 4.83041 0.765062 3.02987 10.5057 -7.39059 1.23299 -7.60731 7.53374 2.58251 -0.61093 -0.00620327 12.9547 3.2495 -3.26872 -67.339 38.7308 -16.3578 29.2081 0.0598081 0.137039 11.838 -14.0871 -100.593 24.234 0.0496219 0.113701 -10.0921 -62.1038 -12.4768 -1.23299 -7.60729 7.53365 -8.14735 -0.81779 -0.115711 -12.9547 3.2495 -3.26872 70.7829 42.7532 12.5364 -29.2081 0.0598081 0.137039 -11.9866 -10.924 85.2472 -24.234 0.0496218 0.113702 16.9595 -86.7381 17.7378 9.23673 -4.20556 2.0327 1.08693 -4.61282 -10.3221 -0.852353 -38.7721 -0.655187 -0.304775 1.1379 -0.0168354 -2.32622 -40.4017 -6.04875 -0.820766 1.69493 15.2461 0.779096 -9.8844 12.4959 3.13946e-16 -7.86881e-16 4.16623e-18 -9.23673 -4.20556 2.0327 -0.865976 -2.88829 11.5574 0.852353 -38.7721 -0.655187 0.503106 1.87879 0.0245464 2.32622 -40.4017 -6.04875 -1.60207 -0.913249 -14.9927 -0.779096 -9.8844 12.4959 -7.93944e-16 -5.5499e-16 -1.27306e-14 
